#!OML:ASF X:\für Bonn\!DataBase\2005_08_12_Daniel\c3d\Daniel.ASF
:FULLY-SPECIFIED
:DEGREES
291
root 1.07645 17.0894 0.355996 -124.922 -88.4485 118.063
lowerback 18.9315 -0.748725 -1.29614
upperback 3.37175 -1.94693 -5.07429
thorax -7.10244 -1.09622 -4.24567
lowerneck -1.51701 0.0754805 -3.46986
upperneck -5.29699 -0.147541 -3.46816
head -1.38032 -0.00379472 -0.492576
rclavicle -9.93923e-015 6.36111e-015
rhumerus -243.91 -203.669 75.2584
rradius 90.1518
rwrist -0.812438
rhand -23.6532 377.741
rfingers 7.12502
rthumb 2.81231 -12.2205
lclavicle -9.93923e-015 6.36111e-015
lhumerus -236.796 190.791 -89.6469
lradius 102.001
lwrist 0.217429
lhand -4.65973 363.906
lfingers 7.12502
lthumb 21.1203 32.7757
rfemur -2.53751 5.47187 13.5767
rtibia 30.3039
rfoot -26.082 -15.2761
rtoes -10.4172
lfemur -9.64569 -18.854 -19.7427
ltibia 38.806
lfoot -28.3075 10.3738
ltoes 0.330634
292
root 1.10777 17.0903 0.372117 -128.706 -88.3172 121.835
lowerback 19.0902 -0.711813 -1.33963
upperback 3.42389 -1.92372 -5.13202
thorax -7.13074 -1.08752 -4.28895
lowerneck -1.17144 0.0754579 -3.46732
upperneck -5.27826 -0.159018 -3.44953
head -1.43355 -0.00482885 -0.487447
rclavicle 5.76476e-015 4.77083e-015
rhumerus -242.348 -204.22 75.8014
rradius 89.1838
rwrist 0.204824
rhand -23.4639 377.568
rfingers 7.12502
rthumb 2.99513 -12.3912
lclavicle 5.76476e-015 4.77083e-015
lhumerus -235.418 191.488 -90.0496
lradius 101.482
lwrist -0.710309
lhand -4.6747 363.96
lfingers 7.12502
lthumb 21.1059 32.8315
rfemur -2.76725 5.24627 13.3598
rtibia 30.3974
rfoot -25.767 -14.9377
rtoes -10.3418
lfemur -9.72431 -18.8717 -19.8466
ltibia 38.807
lfoot -28.2875 10.5536
ltoes 0.45843
293
root 1.13978 17.0902 0.388363 -131.901 -88.1649 124.988
lowerback 19.2817 -0.678358 -1.42696
upperback 3.48765 -1.91437 -5.17256
thorax -7.16294 -1.08453 -4.2847
lowerneck -0.949234 0.0975817 -3.4984
upperneck -5.18813 -0.132384 -3.43138
head -1.44302 0.0105165 -0.476889
rclavicle 7.95139e-015 5.725e-014
rhumerus -240.642 -204.571 76.4572
rradius 88.1428
rwrist 1.50714
rhand -23.1638 377.33
rfingers 7.12502
rthumb 3.28495 -12.624
lclavicle 7.95139e-015 5.725e-014
lhumerus -233.95 191.999 -90.4738
lradius 100.938
lwrist -1.9527
lhand -4.52037 363.944
lfingers 7.12502
lthumb 21.2542 32.799
rfemur -2.97337 5.03517 13.1332
rtibia 30.4844
rfoot -25.4394 -14.6074
rtoes -10.2713
lfemur -9.76686 -18.934 -19.9837
ltibia 38.8006
lfoot -28.2902 10.7656
ltoes 0.547759
294
root 1.17143 17.0909 0.406845 -135.004 -88.013 128.057
lowerback 19.4552 -0.644713 -1.46862
upperback 3.55186 -1.89594 -5.22413
thorax -7.1859 -1.07838 -4.32124
lowerneck -0.717166 0.108821 -3.5465
upperneck -5.15363 -0.121914 -3.36893
head -1.47186 0.018641 -0.449836
rclavicle -1.19271e-015 0
rhumerus -238.817 -204.657 77.1607
rradius 87.0132
rwrist 3.09497
rhand -22.8457 377.084
rfingers 7.12502
rthumb 3.59207 -12.8652
lclavicle -1.19271e-015 0
lhumerus -232.438 192.421 -90.9083
lradius 100.405
lwrist -3.4492
lhand -4.19603 363.981
lfingers 7.12502
lthumb 21.5657 32.8
rfemur -3.17059 4.88062 12.922
rtibia 30.5555
rfoot -25.1581 -14.2808
rtoes -10.1409
lfemur -9.81454 -18.9756 -20.1155
ltibia 38.7954
lfoot -28.2785 11.0062
ltoes 0.575825
295
root 1.20333 17.0903 0.425155 -137.471 -87.8499 130.482
lowerback 19.6591 -0.604379 -1.53064
upperback 3.59426 -1.87554 -5.27767
thorax -7.24817 -1.07091 -4.34923
lowerneck -0.548913 0.122687 -3.54936
upperneck -5.03478 -0.101343 -3.3316
head -1.46293 0.0289379 -0.437848
rclavicle 9.34288e-015 5.725e-014
rhumerus -236.96 -204.507 77.8858
rradius 85.8473
rwrist 4.86743
rhand -22.3965 376.862
rfingers 7.12502
rthumb 4.02584 -13.0802
lclavicle 9.34288e-015 5.725e-014
lhumerus -230.952 192.745 -91.3347
lradius 99.8955
lwrist -5.23208
lhand -3.78938 363.928
lfingers 7.12502
lthumb 21.9562 32.7015
rfemur -3.36269 4.69182 12.7011
rtibia 30.6166
rfoot -24.8071 -13.9843
rtoes -10.1065
lfemur -9.8514 -19.0636 -20.2606
ltibia 38.7856
lfoot -28.2958 11.2474
ltoes 0.66914
296
root 1.23554 17.0905 0.444756 -139.742 -87.6945 132.71
lowerback 19.8515 -0.573865 -1.58156
upperback 3.63873 -1.86414 -5.32124
thorax -7.30238 -1.06771 -4.37047
lowerneck -0.414685 0.138372 -3.57245
upperneck -4.92272 -0.0774578 -3.28592
head -1.45032 0.0406484 -0.419967
rclavicle -1.51076e-014 -6.20208e-014
rhumerus -235.086 -204.185 78.6106
rradius 84.6647
rwrist 6.87224
rhand -21.9548 376.72
rfingers 7.12502
rthumb 4.45241 -13.213
lclavicle -1.51076e-014 -6.20208e-014
lhumerus -229.502 192.928 -91.7297
lradius 99.454
lwrist -7.26737
lhand -3.29389 363.859
lfingers 7.12502
lthumb 22.4319 32.5765
rfemur -3.54223 4.55044 12.5013
rtibia 30.6627
rfoot -24.5005 -13.7086
rtoes -10.0201
lfemur -9.88329 -19.1457 -20.3979
ltibia 38.7742
lfoot -28.3115 11.483
ltoes 0.760118
297
root 1.26657 17.0914 0.46452 -141.799 -87.5318 134.724
lowerback 19.9952 -0.536321 -1.63336
upperback 3.70252 -1.84199 -5.3717
thorax -7.30875 -1.05953 -4.40134
lowerneck -0.315132 0.15705 -3.54387
upperneck -4.8022 -0.0485704 -3.27226
head -1.4291 0.0538121 -0.420567
rclavicle -4.77083e-015 -3.02153e-014
rhumerus -233.193 -203.674 79.3146
rradius 83.5194
rwrist 8.89573
rhand -21.435 376.692
rfingers 7.12502
rthumb 4.95429 -13.2301
lclavicle -4.77083e-015 -3.02153e-014
lhumerus -228.047 193.049 -92.1061
lradius 99.0657
lwrist -9.50403
lhand -2.84236 363.798
lfingers 7.12502
lthumb 22.8653 32.4624
rfemur -3.7109 4.41075 12.3013
rtibia 30.7005
rfoot -24.2175 -13.4328
rtoes -10.0105
lfemur -9.90528 -19.2957 -20.5555
ltibia 38.7535
lfoot -28.3555 11.8161
ltoes 0.798232
298
root 1.29851 17.0917 0.484604 -143.681 -87.3686 136.554
lowerback 20.1531 -0.496135 -1.69555
upperback 3.75108 -1.81893 -5.41447
thorax -7.33855 -1.05042 -4.41841
lowerneck -0.161097 0.17626 -3.49397
upperneck -4.68248 -0.0219741 -3.27733
head -1.41758 0.0664699 -0.430565
rclavicle 1.37161e-014 3.81667e-014
rhumerus -231.43 -202.963 79.9598
rradius 82.4721
rwrist 11.0266
rhand -20.8819 376.862
rfingers 7.12502
rthumb 5.48837 -13.0473
lclavicle 1.37161e-014 3.81667e-014
lhumerus -226.637 193.117 -92.4505
lradius 98.698
lwrist -11.8509
lhand -2.4631 363.704
lfingers 7.12502
lthumb 23.2292 32.3231
rfemur -3.87024 4.30887 12.1167
rtibia 30.7282
rfoot -23.9437 -13.2043
rtoes -10.006
lfemur -9.91421 -19.4028 -20.698
ltibia 38.7243
lfoot -28.3954 12.0738
ltoes 0.89941
299
root 1.3292 17.0925 0.50448 -145.106 -87.1865 137.936
lowerback 20.2474 -0.443758 -1.80043
upperback 3.8265 -1.78616 -5.46146
thorax -7.30325 -1.03596 -4.41754
lowerneck -0.0425474 0.190259 -3.41402
upperneck -4.57849 -0.000856072 -3.28004
head -1.40492 0.0757901 -0.444757
rclavicle 1.86858e-014 3.81667e-014
rhumerus -229.682 -202.141 80.5384
rradius 81.5014
rwrist 13.1391
rhand -20.4274 377.19
rfingers 7.12502
rthumb 5.92721 -12.7069
lclavicle 1.86858e-014 3.81667e-014
lhumerus -225.158 193.121 -92.7798
lradius 98.3128
lwrist -14.2581
lhand -2.14252 363.501
lfingers 7.12502
lthumb 23.5367 32.0811
rfemur -4.02868 4.22845 11.909
rtibia 30.7457
rfoot -23.6923 -12.9447
rtoes -9.94332
lfemur -9.91635 -19.5913 -20.8777
ltibia 38.6872
lfoot -28.4783 12.3993
ltoes 1.04129
